<svg width="900" height="1120" viewBox="0 0 900 1120" fill="none" xmlns="http://www.w3.org/2000/svg">
  <rect width="900" height="1120" fill="#82735B"/>
  <rect y="664" width="900" height="456" fill="#6B5D48"/>
  <path d="M0 760L118 718L196 750L324 672L412 700L534 628L672 676L806 621L900 642V1120H0V760Z" fill="#4A463B"/>
  <path d="M150 230H724V728H150V230Z" stroke="#E6D7AE" stroke-width="10"/>
  <rect x="432" y="268" width="108" height="220" fill="#CC4529"/>
  <rect x="458" y="328" width="56" height="74" fill="#E8DFD0"/>
  <path d="M455 390H516L530 694C532 725 507 750 476 750H495C463 750 438 723 442 692L455 390Z" fill="#B89F79"/>
  <path d="M431 304C441 266 478 247 511 261L562 281L535 340L472 318L442 375L396 360L431 304Z" fill="#232427"/>
  <path d="M559 286L608 300L585 356L534 340L559 286Z" fill="#232427"/>
  <circle cx="482" cy="238" r="44" fill="#17191B"/>
</svg>
