<svg width="1600" height="1080" viewBox="0 0 1600 1080" fill="none" xmlns="http://www.w3.org/2000/svg">
  <rect width="1600" height="1080" fill="#111214"/>
  <rect y="612" width="1600" height="468" fill="#18191B"/>
  <rect x="0" y="666" width="1600" height="8" fill="#2C2D2F" fill-opacity="0.4"/>
  <ellipse cx="1138" cy="628" rx="250" ry="250" fill="url(#paint0_radial)"/>
  <rect x="1008" y="470" width="192" height="452" rx="4" transform="rotate(-8 1008 470)" stroke="#3C3E42" stroke-width="2"/>
  <rect x="1228" y="404" width="236" height="512" rx="4" transform="rotate(1.5 1228 404)" stroke="#35373B" stroke-width="2"/>
  <rect x="1504" y="498" width="178" height="404" rx="4" transform="rotate(6 1504 498)" stroke="#2E3033" stroke-width="2"/>
  <path d="M828 454C774 475 725 522 694 581C669 629 661 693 676 748C689 796 714 834 742 862C756 876 782 873 795 859L955 693C968 679 966 656 952 644L858 560C848 551 847 537 854 526L890 470C901 449 887 427 864 428C852 429 840 434 828 454Z" fill="url(#paint1_linear)" fill-opacity="0.88"/>
  <path d="M862 418C825 423 779 454 748 492C719 528 699 575 695 615C693 637 702 658 724 665L905 725C930 733 955 715 955 688V474C955 438 920 408 862 418Z" fill="url(#paint2_linear)" fill-opacity="0.48"/>
  <path d="M603 216H806" stroke="#7A7D82" stroke-width="2" stroke-linecap="round" stroke-opacity="0.32"/>
  <path d="M608 260H820" stroke="#7A7D82" stroke-width="2" stroke-linecap="round" stroke-opacity="0.24"/>
  <path d="M614 304H794" stroke="#7A7D82" stroke-width="2" stroke-linecap="round" stroke-opacity="0.18"/>
  <defs>
    <radialGradient id="paint0_radial" cx="0" cy="0" r="1" gradientUnits="userSpaceOnUse" gradientTransform="translate(1138 628) rotate(90) scale(250)">
      <stop stop-color="white" stop-opacity="0.42"/>
      <stop offset="0.38" stop-color="white" stop-opacity="0.18"/>
      <stop offset="1" stop-color="white" stop-opacity="0"/>
    </radialGradient>
    <linearGradient id="paint1_linear" x1="660" y1="477" x2="935" y2="862" gradientUnits="userSpaceOnUse">
      <stop stop-color="#565B61"/>
      <stop offset="0.5" stop-color="#383B40"/>
      <stop offset="1" stop-color="#1E2023"/>
    </linearGradient>
    <linearGradient id="paint2_linear" x1="701" y1="434" x2="955" y2="725" gradientUnits="userSpaceOnUse">
      <stop stop-color="white" stop-opacity="0.34"/>
      <stop offset="1" stop-color="white" stop-opacity="0"/>
    </linearGradient>
  </defs>
</svg>
