<?xml version="1.0" encoding="UTF-8"?>
<!DOCTYPE svg PUBLIC "-//W3C//DTD SVG 1.1//EN" "http://www.w3.org/Graphics/SVG/1.1/DTD/svg11.dtd">
<svg xmlns="http://www.w3.org/2000/svg" version="1.1" width="512px" height="512px" style="shape-rendering:geometricPrecision; text-rendering:geometricPrecision; image-rendering:optimizeQuality; fill-rule:evenodd; clip-rule:evenodd" xmlns:xlink="http://www.w3.org/1999/xlink">
<g><path style="opacity:1" fill="#000000" d="M 232.5,-0.5 C 247.833,-0.5 263.167,-0.5 278.5,-0.5C 368.144,10.3879 435.644,54.7213 481,132.5C 497.695,163.971 507.861,197.304 511.5,232.5C 511.5,247.833 511.5,263.167 511.5,278.5C 500.612,368.144 456.279,435.644 378.5,481C 347.029,497.695 313.696,507.861 278.5,511.5C 263.167,511.5 247.833,511.5 232.5,511.5C 142.856,500.612 75.3562,456.279 30,378.5C 13.3053,347.029 3.1386,313.696 -0.5,278.5C -0.5,263.167 -0.5,247.833 -0.5,232.5C 10.3875,142.857 54.7208,75.3573 132.5,30C 163.971,13.3053 197.304,3.1386 232.5,-0.5 Z M 141.5,109.5 C 156.477,106.991 168.977,111.324 179,122.5C 189.987,144.417 184.487,160.584 162.5,171C 149.475,174.518 137.475,172.518 126.5,165C 114.785,153.085 112.619,139.585 120,124.5C 125.438,116.875 132.605,111.875 141.5,109.5 Z M 321.5,195.5 C 373.047,192.54 400.881,216.873 405,268.5C 405.5,307.832 405.667,347.165 405.5,386.5C 385.167,386.5 364.833,386.5 344.5,386.5C 344.667,351.832 344.5,317.165 344,282.5C 344.471,269.519 340.305,258.352 331.5,249C 307.736,237.481 290.236,243.647 279,267.5C 277.529,307.127 277.029,346.794 277.5,386.5C 257.167,386.5 236.833,386.5 216.5,386.5C 216.5,324.167 216.5,261.833 216.5,199.5C 236.833,199.5 257.167,199.5 277.5,199.5C 277.169,208.192 277.502,216.859 278.5,225.5C 288.579,209.302 302.912,199.302 321.5,195.5 Z M 119.5,199.5 C 139.833,199.5 160.167,199.5 180.5,199.5C 180.5,261.833 180.5,324.167 180.5,386.5C 160.167,386.5 139.833,386.5 119.5,386.5C 119.5,324.167 119.5,261.833 119.5,199.5 Z"/></g>
</svg>
